<mxfile host="app.diagrams.net" agent="Mozilla/5.0 (Windows NT 10.0; Win64; x64) AppleWebKit/537.36 (KHTML, like Gecko) Chrome/129.0.0.0 Safari/537.36" version="24.7.17">
  <diagram id="C5RBs43oDa-KdzZeNtuy" name="Page-1">
    <mxGraphModel dx="934" dy="485" grid="1" gridSize="10" guides="1" tooltips="1" connect="1" arrows="1" fold="1" page="1" pageScale="1" pageWidth="827" pageHeight="1169" math="0" shadow="0">
      <root>
        <mxCell id="WIyWlLk6GJQsqaUBKTNV-0" />
        <mxCell id="WIyWlLk6GJQsqaUBKTNV-1" parent="WIyWlLk6GJQsqaUBKTNV-0" />
        <mxCell id="K9RmvqkDkaU8wMu9pPuD-1" style="edgeStyle=orthogonalEdgeStyle;rounded=0;orthogonalLoop=1;jettySize=auto;html=1;exitX=1;exitY=0.5;exitDx=0;exitDy=0;entryX=0.105;entryY=0.387;entryDx=0;entryDy=0;entryPerimeter=0;" parent="WIyWlLk6GJQsqaUBKTNV-1" source="K9RmvqkDkaU8wMu9pPuD-0" target="K9RmvqkDkaU8wMu9pPuD-4" edge="1">
          <mxGeometry relative="1" as="geometry">
            <mxPoint x="383" y="157" as="targetPoint" />
          </mxGeometry>
        </mxCell>
        <mxCell id="K9RmvqkDkaU8wMu9pPuD-0" value="Start d&lt;span style=&quot;background-color: initial;&quot;&gt;ivision.s&lt;/span&gt;" style="ellipse;whiteSpace=wrap;html=1;" parent="WIyWlLk6GJQsqaUBKTNV-1" vertex="1">
          <mxGeometry x="164" y="280" width="120" height="80" as="geometry" />
        </mxCell>
        <mxCell id="K9RmvqkDkaU8wMu9pPuD-8" value="YES" style="edgeStyle=orthogonalEdgeStyle;rounded=0;orthogonalLoop=1;jettySize=auto;html=1;entryX=1;entryY=0.5;entryDx=0;entryDy=0;" parent="WIyWlLk6GJQsqaUBKTNV-1" source="K9RmvqkDkaU8wMu9pPuD-2" target="K9RmvqkDkaU8wMu9pPuD-7" edge="1">
          <mxGeometry x="-0.536" relative="1" as="geometry">
            <mxPoint as="offset" />
          </mxGeometry>
        </mxCell>
        <mxCell id="qwA8c6eQVYafrWKvCbjQ-1" value="NO" style="edgeStyle=orthogonalEdgeStyle;rounded=0;orthogonalLoop=1;jettySize=auto;html=1;" edge="1" parent="WIyWlLk6GJQsqaUBKTNV-1" source="K9RmvqkDkaU8wMu9pPuD-2" target="qwA8c6eQVYafrWKvCbjQ-0">
          <mxGeometry relative="1" as="geometry" />
        </mxCell>
        <mxCell id="K9RmvqkDkaU8wMu9pPuD-2" value="r2(divisor)&amp;nbsp;!= 0&amp;nbsp;" style="rhombus;whiteSpace=wrap;html=1;shadow=0;fontFamily=Helvetica;fontSize=12;align=center;strokeWidth=1;spacing=6;spacingTop=-4;" parent="WIyWlLk6GJQsqaUBKTNV-1" vertex="1">
          <mxGeometry x="499" y="360" width="113" height="80" as="geometry" />
        </mxCell>
        <mxCell id="K9RmvqkDkaU8wMu9pPuD-6" style="edgeStyle=orthogonalEdgeStyle;rounded=0;orthogonalLoop=1;jettySize=auto;html=1;entryX=0.521;entryY=0.012;entryDx=0;entryDy=0;entryPerimeter=0;" parent="WIyWlLk6GJQsqaUBKTNV-1" source="K9RmvqkDkaU8wMu9pPuD-4" target="K9RmvqkDkaU8wMu9pPuD-2" edge="1">
          <mxGeometry relative="1" as="geometry" />
        </mxCell>
        <mxCell id="K9RmvqkDkaU8wMu9pPuD-4" value="Non-negative&amp;nbsp;&lt;div&gt;integer Inputs&amp;nbsp;&lt;/div&gt;&lt;div&gt;stored in r1(dividend)&amp;nbsp;&lt;/div&gt;&lt;div&gt;and r2(divisor).&lt;/div&gt;" style="shape=parallelogram;perimeter=parallelogramPerimeter;whiteSpace=wrap;html=1;fixedSize=1;" parent="WIyWlLk6GJQsqaUBKTNV-1" vertex="1">
          <mxGeometry x="313" y="297" width="140" height="60" as="geometry" />
        </mxCell>
        <mxCell id="K9RmvqkDkaU8wMu9pPuD-11" style="edgeStyle=orthogonalEdgeStyle;rounded=0;orthogonalLoop=1;jettySize=auto;html=1;exitX=0.5;exitY=1;exitDx=0;exitDy=0;entryX=0.5;entryY=0;entryDx=0;entryDy=0;" parent="WIyWlLk6GJQsqaUBKTNV-1" source="K9RmvqkDkaU8wMu9pPuD-7" target="K9RmvqkDkaU8wMu9pPuD-10" edge="1">
          <mxGeometry relative="1" as="geometry" />
        </mxCell>
        <mxCell id="K9RmvqkDkaU8wMu9pPuD-7" value="Keep quotient value in r3(currently 0)&lt;div&gt;Keep&amp;nbsp;&lt;span style=&quot;background-color: initial;&quot;&gt;remainder&amp;nbsp;&lt;/span&gt;&lt;span style=&quot;background-color: initial;&quot;&gt;value in&amp;nbsp;&lt;/span&gt;&lt;span style=&quot;background-color: initial;&quot;&gt;r4&lt;/span&gt;&lt;span style=&quot;background-color: initial;&quot;&gt;.&lt;/span&gt;&lt;/div&gt;" style="rounded=1;whiteSpace=wrap;html=1;fontSize=12;glass=0;strokeWidth=1;shadow=0;" parent="WIyWlLk6GJQsqaUBKTNV-1" vertex="1">
          <mxGeometry x="164" y="380" width="210" height="40" as="geometry" />
        </mxCell>
        <mxCell id="qwA8c6eQVYafrWKvCbjQ-2" style="edgeStyle=orthogonalEdgeStyle;rounded=0;orthogonalLoop=1;jettySize=auto;html=1;entryX=0.5;entryY=0;entryDx=0;entryDy=0;" edge="1" parent="WIyWlLk6GJQsqaUBKTNV-1" source="K9RmvqkDkaU8wMu9pPuD-10" target="K9RmvqkDkaU8wMu9pPuD-20">
          <mxGeometry relative="1" as="geometry" />
        </mxCell>
        <mxCell id="K9RmvqkDkaU8wMu9pPuD-10" value="Keep remainder value in r4&lt;div&gt;(remainder&amp;nbsp;equals dividend - divisor * num_loops)&lt;/div&gt;" style="rounded=1;whiteSpace=wrap;html=1;" parent="WIyWlLk6GJQsqaUBKTNV-1" vertex="1">
          <mxGeometry x="129" y="440" width="280" height="60" as="geometry" />
        </mxCell>
        <mxCell id="K9RmvqkDkaU8wMu9pPuD-16" style="edgeStyle=orthogonalEdgeStyle;rounded=0;orthogonalLoop=1;jettySize=auto;html=1;entryX=0.5;entryY=0;entryDx=0;entryDy=0;" parent="WIyWlLk6GJQsqaUBKTNV-1" source="K9RmvqkDkaU8wMu9pPuD-12" target="K9RmvqkDkaU8wMu9pPuD-14" edge="1">
          <mxGeometry relative="1" as="geometry" />
        </mxCell>
        <mxCell id="K9RmvqkDkaU8wMu9pPuD-12" value="&lt;span id=&quot;docs-internal-guid-44035d83-7fff-ea7f-9492-5141b80bd1a2&quot;&gt;&lt;span style=&quot;font-size: 9pt; font-family: Arial, sans-serif; background-color: rgb(255, 255, 255); font-variant-numeric: normal; font-variant-east-asian: normal; font-variant-alternates: normal; font-variant-position: normal; vertical-align: baseline; white-space-collapse: preserve;&quot;&gt;Subtract the divisor(r2) from the dividend(r1), keep the difference in &lt;/span&gt;&lt;/span&gt;&lt;span style=&quot;background-color: rgb(255, 255, 255); font-family: Arial, sans-serif; font-size: 9pt; white-space-collapse: preserve;&quot;&gt;r1 as the new dividend.&lt;/span&gt;" style="rounded=1;whiteSpace=wrap;html=1;" parent="WIyWlLk6GJQsqaUBKTNV-1" vertex="1">
          <mxGeometry x="289" y="560" width="180" height="70" as="geometry" />
        </mxCell>
        <mxCell id="qwA8c6eQVYafrWKvCbjQ-5" style="edgeStyle=orthogonalEdgeStyle;rounded=0;orthogonalLoop=1;jettySize=auto;html=1;entryX=0.5;entryY=1;entryDx=0;entryDy=0;exitX=1;exitY=0.5;exitDx=0;exitDy=0;" edge="1" parent="WIyWlLk6GJQsqaUBKTNV-1" source="K9RmvqkDkaU8wMu9pPuD-14" target="K9RmvqkDkaU8wMu9pPuD-20">
          <mxGeometry relative="1" as="geometry">
            <mxPoint x="510" y="665" as="sourcePoint" />
            <Array as="points">
              <mxPoint x="570" y="665" />
            </Array>
          </mxGeometry>
        </mxCell>
        <mxCell id="K9RmvqkDkaU8wMu9pPuD-14" value="Increase the quotient(r3) by 1" style="rounded=1;whiteSpace=wrap;html=1;" parent="WIyWlLk6GJQsqaUBKTNV-1" vertex="1">
          <mxGeometry x="259" y="650" width="240" height="30" as="geometry" />
        </mxCell>
        <mxCell id="K9RmvqkDkaU8wMu9pPuD-17" value="Here,&amp;nbsp;&lt;span id=&quot;docs-internal-guid-6fa09476-7fff-a57e-9043-292cf2e50939&quot;&gt;&lt;span style=&quot;font-size: 9pt; font-family: Arial, sans-serif; background-color: rgb(255, 255, 255); font-variant-numeric: normal; font-variant-east-asian: normal; font-variant-alternates: normal; font-variant-position: normal; vertical-align: baseline; white-space-collapse: preserve;&quot;&gt;the quotient the really represents the number of times the divisor was subtracted from the dividend without the &lt;/span&gt;&lt;/span&gt;&lt;div&gt;&lt;span&gt;&lt;span style=&quot;font-size: 9pt; font-family: Arial, sans-serif; background-color: rgb(255, 255, 255); font-variant-numeric: normal; font-variant-east-asian: normal; font-variant-alternates: normal; font-variant-position: normal; vertical-align: baseline; white-space-collapse: preserve;&quot;&gt;dividend going below zero&lt;/span&gt;&lt;/span&gt;&lt;/div&gt;" style="shape=callout;whiteSpace=wrap;html=1;perimeter=calloutPerimeter;position2=0.94;base=29;" parent="WIyWlLk6GJQsqaUBKTNV-1" vertex="1">
          <mxGeometry x="90" y="547" width="180" height="110" as="geometry" />
        </mxCell>
        <mxCell id="K9RmvqkDkaU8wMu9pPuD-19" value="" style="endArrow=none;html=1;rounded=0;exitX=0;exitY=0.25;exitDx=0;exitDy=0;entryX=0;entryY=0;entryDx=169.2;entryDy=110;entryPerimeter=0;" parent="WIyWlLk6GJQsqaUBKTNV-1" source="K9RmvqkDkaU8wMu9pPuD-14" target="K9RmvqkDkaU8wMu9pPuD-17" edge="1">
          <mxGeometry width="50" height="50" relative="1" as="geometry">
            <mxPoint x="229" y="680" as="sourcePoint" />
            <mxPoint x="279" y="630" as="targetPoint" />
          </mxGeometry>
        </mxCell>
        <mxCell id="qwA8c6eQVYafrWKvCbjQ-3" value="YES" style="edgeStyle=orthogonalEdgeStyle;rounded=0;orthogonalLoop=1;jettySize=auto;html=1;entryX=0.5;entryY=0;entryDx=0;entryDy=0;" edge="1" parent="WIyWlLk6GJQsqaUBKTNV-1" source="K9RmvqkDkaU8wMu9pPuD-20" target="K9RmvqkDkaU8wMu9pPuD-12">
          <mxGeometry x="-0.7059" relative="1" as="geometry">
            <mxPoint as="offset" />
          </mxGeometry>
        </mxCell>
        <mxCell id="qwA8c6eQVYafrWKvCbjQ-4" value="NO" style="edgeStyle=orthogonalEdgeStyle;rounded=0;orthogonalLoop=1;jettySize=auto;html=1;entryX=0.5;entryY=1;entryDx=0;entryDy=0;" edge="1" parent="WIyWlLk6GJQsqaUBKTNV-1" source="K9RmvqkDkaU8wMu9pPuD-20" target="qwA8c6eQVYafrWKvCbjQ-0">
          <mxGeometry x="-0.6837" relative="1" as="geometry">
            <mxPoint as="offset" />
          </mxGeometry>
        </mxCell>
        <mxCell id="K9RmvqkDkaU8wMu9pPuD-20" value="r1(divisor) &amp;gt; r2(quotient)&amp;nbsp;" style="rhombus;whiteSpace=wrap;html=1;" parent="WIyWlLk6GJQsqaUBKTNV-1" vertex="1">
          <mxGeometry x="490" y="490" width="159" height="90" as="geometry" />
        </mxCell>
        <mxCell id="qwA8c6eQVYafrWKvCbjQ-0" value="Stop d&lt;span style=&quot;background-color: initial;&quot;&gt;ivision.s&lt;/span&gt;" style="ellipse;whiteSpace=wrap;html=1;" vertex="1" parent="WIyWlLk6GJQsqaUBKTNV-1">
          <mxGeometry x="660" y="360" width="120" height="80" as="geometry" />
        </mxCell>
      </root>
    </mxGraphModel>
  </diagram>
</mxfile>
